<?xml version="1.0" standalone="no"?>
<!DOCTYPE svg PUBLIC "-//W3C//DTD SVG 20010904//EN"
 "http://www.w3.org/TR/2001/REC-SVG-20010904/DTD/svg10.dtd">
<svg version="1.0" xmlns="http://www.w3.org/2000/svg"
 width="512.000000pt" height="512.000000pt" viewBox="0 0 512.000000 512.000000"
 preserveAspectRatio="xMidYMid meet">
<metadata>
Created by potrace 1.14, written by Peter Selinger 2001-2017
</metadata>
<g transform="translate(0.000000,512.000000) scale(0.100000,-0.100000)"
fill="#000000" stroke="none">
<path d="M3910 4970 l0 -150 345 -2 346 -3 -393 -392 c-216 -216 -540 -538
-720 -716 l-327 -324 -601 600 -600 601 -458 -457 c-251 -251 -681 -679 -955
-950 -273 -272 -497 -497 -497 -501 0 -9 199 -206 208 -206 3 0 213 207 467
459 253 253 634 633 848 844 l387 384 601 -601 600 -600 402 402 c221 221 593
591 827 822 l425 421 3 -340 2 -341 150 0 150 0 0 600 0 600 -605 0 -605 0 0
-150z"/>
<path d="M3910 1810 l0 -1510 -150 0 -150 0 0 910 0 910 -450 0 -450 0 0 -910
0 -910 -150 0 -150 0 0 1210 0 1210 -450 0 -450 0 0 -1210 0 -1210 -150 0
-150 0 0 760 0 760 -455 0 -455 0 0 -760 0 -760 -150 0 -150 0 0 -150 0 -150
2560 0 2560 0 0 150 0 150 -150 0 -150 0 0 1510 0 1510 -455 0 -455 0 0 -1510z"/>
</g>
</svg>
